<svg id="netmedia-logo" width="264" height="54" viewBox="0 0 264 54" fill="none" xmlns="http://www.w3.org/2000/svg">
                <path fill-rule="evenodd" clip-rule="evenodd" d="M8 23.6055C9.53735 23.1786 11.521 22.7813 13.9483 22.4122C16.3757 22.0432 18.925 21.8593 21.5962 21.8593C24.3063 21.8593 26.5634 22.2 28.3635 22.8777C30.1636 23.5566 31.5897 24.5185 32.6418 25.7594C33.694 27.0028 34.4419 28.4764 34.8882 30.1854C35.3318 31.8943 35.5557 33.7961 35.5557 35.8921V53.1861H26.5125V36.9388C26.5125 34.1446 26.1278 32.1644 25.3598 30.9993C24.5905 29.8343 23.1537 29.2531 21.0507 29.2531C20.4033 29.2531 19.7157 29.2827 18.9866 29.3406C18.2588 29.3984 17.6101 29.4666 17.0445 29.5437V53.1847H8V23.6055Z" fill="#F5F5F7"/>
                <path fill-rule="evenodd" clip-rule="evenodd" d="M61.2896 34.7849C61.2481 34.0482 61.1167 33.3294 60.8942 32.6311C60.6717 31.9328 60.3273 31.3118 59.8622 30.7678C59.3971 30.2252 58.8087 29.7777 58.101 29.4279C57.3933 29.0782 56.5127 28.9046 55.4606 28.9046C54.4486 28.9046 53.5788 29.0705 52.851 29.3996C52.1232 29.7301 51.516 30.166 51.0308 30.71C50.5456 31.2539 50.1703 31.884 49.9076 32.6028C49.6436 33.3216 49.4519 34.0494 49.3313 34.7862H61.2896V34.7849ZM40.0469 38.1039C40.0469 35.3868 40.4811 33.0091 41.351 30.971C42.2209 28.9329 43.3628 27.2355 44.7809 25.8763C46.1963 24.5184 47.8248 23.4897 49.6664 22.7902C51.508 22.092 53.3992 21.7422 55.3413 21.7422C59.8729 21.7422 63.4529 23.0718 66.0839 25.731C68.7137 28.3902 70.0285 32.3019 70.0285 37.4634C70.0285 37.9688 70.0084 38.5218 69.9682 39.1235C69.928 39.7253 69.8864 40.2589 69.8476 40.7244H49.3326C49.5337 42.5092 50.4035 43.9277 51.9422 44.9743C53.4796 46.0224 55.5437 46.5469 58.1318 46.5469C59.7911 46.5469 61.4196 46.4016 63.0186 46.1097C64.6163 45.8192 65.9218 45.4604 66.9324 45.0321L68.1467 52.0775C67.6615 52.3102 67.0141 52.5431 66.2046 52.7757C65.395 53.0084 64.4943 53.213 63.5038 53.3878C62.512 53.5627 61.4491 53.708 60.3179 53.825C59.184 53.9407 58.0514 54 56.9188 54C54.0452 54 51.5482 53.5922 49.4238 52.777C47.2994 51.9617 45.5395 50.8469 44.1442 49.43C42.7476 48.0128 41.7169 46.3347 41.0494 44.393C40.3806 42.4514 40.0469 40.3554 40.0469 38.1039Z" fill="#F5F5F7"/>
                <path fill-rule="evenodd" clip-rule="evenodd" d="M74.5209 14.9296L83.564 13.5319V23.5862H94.4273V30.8064H83.564V40.5496C83.564 42.3742 83.8978 43.8299 84.5652 44.9164C85.2327 46.0043 86.5771 46.5468 88.601 46.5468C89.5714 46.5468 90.5739 46.4595 91.6046 46.2846C92.6367 46.1097 93.5776 45.868 94.4273 45.5568L95.702 52.3103C94.6096 52.7385 93.3953 53.1062 92.0603 53.4161C90.7254 53.7259 89.0862 53.8815 87.144 53.8815C84.6752 53.8815 82.6325 53.5614 81.0134 52.9211C79.3943 52.2807 78.1009 51.3883 77.1291 50.2426C76.1587 49.0981 75.4805 47.7092 75.0959 46.0789C74.7112 44.4484 74.5195 42.643 74.5195 40.6639V14.9296H74.5209Z" fill="#F5F5F7"/>
                <path fill-rule="evenodd" clip-rule="evenodd" d="M117.787 36.9388C117.787 34.1447 117.412 32.1643 116.664 30.9993C115.914 29.8343 114.63 29.2531 112.81 29.2531C112.243 29.2531 111.658 29.2827 111.05 29.3405C110.443 29.3984 109.856 29.4665 109.289 29.5437V53.1846H100.246V23.6055C101.014 23.4113 101.915 23.2081 102.947 22.9934C103.979 22.7812 105.071 22.5858 106.224 22.4109C107.377 22.236 108.56 22.101 109.774 22.0033C110.989 21.9068 112.182 21.858 113.356 21.858C115.662 21.858 117.534 22.1396 118.97 22.7028C120.406 23.266 121.589 23.936 122.521 24.7113C123.816 23.8189 125.302 23.1207 126.981 22.6154C128.66 22.1113 130.208 21.858 131.624 21.858C134.174 21.858 136.267 22.1987 137.906 22.8764C139.545 23.5553 140.85 24.5172 141.82 25.7581C142.791 27.0015 143.459 28.4751 143.823 30.1841C144.187 31.893 144.369 33.7948 144.369 35.8909V53.1846H135.326V36.9388C135.326 34.1447 134.951 32.1643 134.203 30.9993C133.454 29.8343 132.17 29.2531 130.35 29.2531C129.864 29.2531 129.186 29.3701 128.316 29.6028C127.445 29.8356 126.728 30.1275 126.161 30.476C126.444 31.3696 126.626 32.3096 126.707 33.2998C126.788 34.2899 126.829 35.3482 126.829 36.4733V53.1846H117.787V36.9388Z" fill="#F5F5F7"/>
                <path fill-rule="evenodd" clip-rule="evenodd" d="M169.441 34.7849C169.4 34.0482 169.269 33.3294 169.047 32.6311C168.824 31.9328 168.48 31.3118 168.014 30.7678C167.549 30.2252 166.962 29.7777 166.255 29.4279C165.547 29.0782 164.666 28.9046 163.614 28.9046C162.602 28.9046 161.732 29.0705 161.005 29.3996C160.277 29.7301 159.67 30.166 159.183 30.71C158.698 31.2539 158.324 31.884 158.061 32.6028C157.797 33.3216 157.606 34.0494 157.484 34.7862H169.441V34.7849ZM148.199 38.1039C148.199 35.3868 148.633 33.0091 149.505 30.971C150.375 28.9329 151.517 27.2355 152.933 25.8763C154.348 24.5184 155.977 23.4897 157.82 22.7902C159.66 22.092 161.553 21.7422 163.495 21.7422C168.025 21.7422 171.607 23.0718 174.238 25.731C176.866 28.3902 178.182 32.3019 178.182 37.4634C178.182 37.9688 178.162 38.5218 178.122 39.1235C178.082 39.7253 178.04 40.2589 178 40.7244H157.486C157.689 42.5092 158.559 43.9277 160.096 44.9743C161.633 46.0224 163.697 46.5469 166.287 46.5469C167.946 46.5469 169.575 46.4016 171.174 46.1097C172.771 45.8192 174.077 45.4604 175.087 45.0321L176.302 52.0775C175.816 52.3102 175.168 52.5431 174.359 52.7757C173.55 53.0084 172.649 53.213 171.659 53.3878C170.667 53.5627 169.604 53.708 168.472 53.825C167.339 53.9407 166.205 54 165.072 54C162.199 54 159.702 53.5922 157.577 52.777C155.453 51.9617 153.693 50.8469 152.298 49.43C150.901 48.0128 149.869 46.3347 149.203 44.393C148.533 42.4514 148.199 40.3554 148.199 38.1039Z" fill="#F5F5F7"/>
                <path fill-rule="evenodd" clip-rule="evenodd" d="M190.681 37.6383C190.681 40.3168 191.308 42.4707 192.563 44.1012C193.816 45.7315 195.678 46.5468 198.147 46.5468C198.956 46.5468 199.704 46.5173 200.393 46.4595C201.081 46.4003 201.646 46.3335 202.093 46.255V30.4759C201.526 30.1262 200.787 29.8356 199.877 29.6028C198.967 29.3701 198.046 29.2531 197.115 29.2531C192.826 29.2531 190.681 32.0485 190.681 37.6383ZM211.136 52.1958C210.326 52.4285 209.395 52.6523 208.344 52.8657C207.292 53.0792 206.188 53.2631 205.036 53.4187C203.883 53.5743 202.709 53.7003 201.516 53.798C200.322 53.8944 199.18 53.9433 198.086 53.9433C195.455 53.9433 193.11 53.5743 191.047 52.8374C188.983 52.1006 187.243 51.0424 185.828 49.665C184.411 48.2879 183.328 46.6176 182.58 44.658C181.831 42.6983 181.457 40.4943 181.457 38.0484C181.457 35.5642 181.781 33.3228 182.429 31.3233C183.075 29.3251 184.006 27.6264 185.221 26.2287C186.435 24.8309 187.921 23.7636 189.681 23.0255C191.441 22.2887 193.454 21.9197 195.719 21.9197C196.972 21.9197 198.096 22.0367 199.088 22.2694C200.078 22.5022 201.081 22.8327 202.093 23.2596V9.39775L211.136 8V52.1958Z" fill="#F5F5F7"/>
                <path fill-rule="evenodd" clip-rule="evenodd" d="M225.83 13.1242C225.83 14.7162 225.294 15.9686 224.222 16.8803C223.15 17.7933 221.886 18.2485 220.429 18.2485C218.972 18.2485 217.707 17.792 216.636 16.8803C215.563 15.9686 215.027 14.7162 215.027 13.1242C215.027 11.5323 215.563 10.2812 216.636 9.36818C217.707 8.45649 218.972 8 220.429 8C221.886 8 223.15 8.45649 224.222 9.36818C225.294 10.2812 225.83 11.5323 225.83 13.1242Z" fill="#F5F5F7"/>
                <path fill-rule="evenodd" clip-rule="evenodd" d="M224.981 53.1847H215.938V24.9172L224.981 23.5709V53.1847Z" fill="#F5F5F7"/>
                <path fill-rule="evenodd" clip-rule="evenodd" d="M242.734 47.1294C243.623 47.1294 244.474 47.1102 245.284 47.0702C246.092 47.0317 246.741 46.9738 247.226 46.8967V40.3169C246.861 40.2396 246.316 40.1613 245.586 40.0841C244.859 40.0069 244.19 39.967 243.583 39.967C242.733 39.967 241.934 40.0172 241.185 40.1125C240.436 40.2089 239.779 40.3939 239.212 40.6653C238.645 40.938 238.2 41.3056 237.877 41.7711C237.552 42.2366 237.392 42.8191 237.392 43.5186C237.392 44.8778 237.866 45.8192 238.818 46.3424C239.769 46.8671 241.075 47.1294 242.734 47.1294ZM242.005 21.7422C244.675 21.7422 246.9 22.0341 248.681 22.6153C250.461 23.1978 251.887 24.0324 252.959 25.1189C254.03 26.2055 254.789 27.5261 255.235 29.0782C255.68 30.6315 255.903 32.3585 255.903 34.2603V52.3115C254.608 52.5828 252.808 52.9043 250.501 53.2722C248.196 53.6412 245.403 53.8263 242.126 53.8263C240.063 53.8263 238.191 53.6514 236.512 53.3029C234.833 52.9532 233.387 52.3809 232.172 51.585C230.958 50.7903 230.027 49.7514 229.381 48.4693C228.733 47.1886 228.41 45.6159 228.41 43.7527C228.41 41.9679 228.784 40.4544 229.533 39.2109C230.281 37.9688 231.283 36.9788 232.537 36.2418C233.79 35.5051 235.227 34.9714 236.846 34.6409C238.464 34.3117 240.143 34.1458 241.883 34.1458C243.056 34.1458 244.099 34.1947 245.009 34.2911C245.919 34.3889 246.657 34.5149 247.224 34.6693V33.8539C247.224 32.379 246.759 31.196 245.828 30.3023C244.896 29.4099 243.278 28.9625 240.973 28.9625C239.434 28.9625 237.917 29.0705 236.42 29.2826C234.923 29.4961 233.628 29.7983 232.536 30.1853L231.383 23.1978C231.908 23.0435 232.567 22.8777 233.356 22.7028C234.145 22.5279 235.003 22.3736 235.935 22.2373C236.865 22.1023 237.846 21.9852 238.879 21.8875C239.911 21.7911 240.953 21.7422 242.005 21.7422Z" fill="#F5F5F7"/>
</svg>

<svg id="profico-logo" xmlns="http://www.w3.org/2000/svg" width="115" height="18" viewBox="0 0 115 18" fill="none">
  <path fill-rule="evenodd" clip-rule="evenodd" d="M45.9673 8.56594C46.6771 6.06808 45.1668 5.36393 43.0963 5.36393C42.2617 5.36754 41.4327 5.45513 40.6362 5.62381L38.6137 12.0984C39.3795 12.2987 40.1941 12.3993 41.0151 12.3944C43.638 12.3944 45.3056 10.9334 45.9059 8.76821L45.9673 8.56594ZM38.1228 13.6514L37.0848 16.9258C36.9461 17.408 36.5912 17.6103 35.9081 17.6103H34.9849C34.2752 17.6103 34.0271 17.408 34.1658 16.9258L37.8773 5.11471C38.0961 4.4483 38.6778 4.33813 39.134 4.22616C40.0626 3.98597 42.0317 3.80176 43.5873 3.80176C47.4428 3.80176 50.2311 5.09665 49.0811 8.55492L49.0011 8.7953C47.9071 12.0694 45.4737 13.9767 41.402 13.9767C40.2928 13.9644 39.1906 13.8551 38.1228 13.6514Z" fill="#F5F5F7"/>
  <path fill-rule="evenodd" clip-rule="evenodd" d="M60.6164 4.8654C60.371 5.21576 60.454 5.51194 59.6615 5.49388C59.1548 5.44006 58.6425 5.41532 58.1299 5.41984C57.2009 5.43157 56.2801 5.53759 55.3974 5.73408L53.0734 13.0971C52.9376 13.5775 52.5827 13.7815 51.8967 13.7815H50.9682C50.2587 13.7815 50.013 13.5775 50.1493 13.0971L52.6895 5.03155C52.8282 4.6252 53.1564 4.38501 53.9192 4.23692C55.3147 3.87572 56.8729 3.79265 58.2927 3.79265C59.0088 3.78325 59.7245 3.82624 60.427 3.92087C61.0567 3.99492 60.9743 4.21705 60.7288 4.71731L60.6164 4.8654Z" fill="#F5F5F7"/>
  <path fill-rule="evenodd" clip-rule="evenodd" d="M70.1273 8.71222C70.8371 6.6227 70.0446 5.36393 67.7766 5.36393C65.4259 5.36393 64.0865 6.54883 63.3474 8.71222L63.2407 9.02827C62.5285 11.1557 63.3767 12.3946 65.562 12.3946C67.7473 12.3946 69.2521 11.2839 70.0179 9.02827L70.1273 8.71222ZM60.2869 8.71222C61.4076 5.40185 64.0865 3.79272 68.2676 3.79272C72.3126 3.79272 74.2817 5.4759 73.1877 8.71222L73.0783 9.02827C71.9577 12.3386 69.2521 13.9676 65.0737 13.9676C61.0287 13.9676 59.0862 12.2646 60.1802 9.02827L60.2869 8.71222Z" fill="#F5F5F7"/>
  <path fill-rule="evenodd" clip-rule="evenodd" d="M75.7589 4.66139C75.9217 4.18099 76.2766 3.97692 76.9626 3.97692H77.8908L78.1577 3.08837C78.814 0.998853 81.3835 0.000145027 85.266 0.000145027C86.4691 -0.00473113 87.6664 0.11338 88.8172 0.350506C89.4735 0.462476 89.719 0.628627 89.3642 1.10902L89.2548 1.25711C88.9268 1.70138 88.6253 1.83141 87.8886 1.7989C87.0305 1.65497 86.15 1.58092 85.266 1.57857C82.4217 1.57857 81.3568 2.13301 81.0556 3.09379L80.7888 3.98234H87.6191C88.3316 3.98234 88.577 4.18641 88.4196 4.6668L86.3624 11.255C86.1439 11.9395 86.28 12.2158 86.9094 12.2158C87.141 12.2111 87.3707 12.1862 87.5927 12.1418C87.9206 12.1056 87.9767 12.1976 87.9767 12.503L87.9476 12.7628C87.9206 13.1692 87.894 13.4473 86.9924 13.6135C86.5364 13.7252 86.055 13.7814 85.5702 13.7798C83.7665 13.7798 82.7817 13.2812 83.4116 11.2641L85.2418 5.5102H80.3218L77.9204 13.0953C77.7844 13.5755 77.4295 13.7798 76.7462 13.7798H75.8096C75.1268 13.7798 74.8811 13.5755 75.0092 13.0953L77.4106 5.5102H76.4793C75.879 5.5102 75.5241 5.3296 75.6789 4.82573L75.7589 4.66139Z" fill="#F5F5F7"/>
  <path fill-rule="evenodd" clip-rule="evenodd" d="M101.479 4.9216C101.233 5.36407 101.068 5.47604 100.577 5.46339C99.8244 5.40163 99.0669 5.37021 98.3088 5.36948C95.4376 5.36948 94.0183 6.53615 93.2792 8.73746L93.1696 9.05188C92.4041 11.3094 93.498 12.4002 96.2033 12.4002C96.9899 12.396 97.7749 12.3586 98.5543 12.2882C98.9359 12.2701 99.0717 12.4002 99.0186 12.8444L98.9919 13.1406C98.9919 13.4877 98.5762 13.7691 98.0633 13.7691C97.0513 13.8888 96.0272 13.9539 95.0002 13.9642C90.7311 13.9642 88.9621 12.3171 90.1361 8.95075L90.2188 8.7268C91.3101 5.60065 93.4714 3.78744 98.1165 3.78744C99.116 3.77516 100.114 3.83566 101.094 3.96804C101.588 4.04209 101.895 4.14864 101.641 4.61639L101.479 4.9216Z" fill="#F5F5F7"/>
  <path fill-rule="evenodd" clip-rule="evenodd" d="M111.588 8.71222C112.298 6.6227 111.506 5.36393 109.238 5.36393C106.887 5.36393 105.547 6.54883 104.811 8.71222L104.702 9.02827C103.99 11.1557 104.838 12.3946 107.023 12.3946C109.208 12.3946 110.713 11.2839 111.479 9.02827L111.588 8.71222ZM101.751 8.71222C102.869 5.40185 105.547 3.79272 109.731 3.79272C113.774 3.79272 115.743 5.4759 114.649 8.71222L114.54 9.02827C113.429 12.3386 110.713 13.964 106.532 13.964C102.487 13.964 100.547 12.261 101.641 9.02465L101.751 8.71222Z" fill="#F5F5F7"/>
  <path fill-rule="evenodd" clip-rule="evenodd" d="M16.7622 6.01778C16.6157 6.43622 16.0762 6.738 15.4415 6.75642H13.6831C13.209 6.76943 12.809 6.51984 12.7898 6.19892C12.7861 6.13787 12.7967 6.07665 12.8213 6.01778L13.1895 4.82763C13.3365 4.40937 13.8758 4.10795 14.5103 4.08899H16.2686C16.7427 4.07598 17.1427 4.32557 17.1619 4.64649C17.1654 4.70754 17.155 4.76876 17.1304 4.82763L16.7622 6.01778Z" fill="#F5F5F7"/>
  <path fill-rule="evenodd" clip-rule="evenodd" d="M22.0664 6.01763C21.9197 6.43969 21.3727 6.74255 20.7323 6.75628H18.974C18.4982 6.76892 18.0975 6.51825 18.0788 6.19643C18.0753 6.13611 18.0857 6.07579 18.1095 6.01763L18.4803 4.82749C18.6271 4.40543 19.1743 4.10257 19.8144 4.08884H21.5728C22.0467 4.07313 22.4498 4.32037 22.4731 4.64111C22.4776 4.70342 22.4675 4.76573 22.4426 4.82568L22.0664 6.01763Z" fill="#F5F5F7"/>
  <path fill-rule="evenodd" clip-rule="evenodd" d="M27.3716 6.01775C27.2262 6.43656 26.6861 6.7387 26.0508 6.7564H24.2925C23.8183 6.7694 23.4184 6.51981 23.3992 6.19889C23.3954 6.13785 23.4061 6.07662 23.4306 6.01775L23.7989 4.82761C23.9459 4.40934 24.4851 4.10792 25.1196 4.08896H26.878C27.3535 4.07632 27.7542 4.32699 27.7729 4.64881C27.7766 4.70913 27.7662 4.76945 27.7425 4.82761L27.3716 6.01775Z" fill="#F5F5F7"/>
  <path fill-rule="evenodd" clip-rule="evenodd" d="M15.6475 9.60776C15.5008 10.0298 14.9535 10.3327 14.3134 10.3464H12.5737C12.0996 10.3594 11.6996 10.1098 11.6804 9.7889C11.6767 9.72786 11.6874 9.66664 11.7119 9.60776L12.0801 8.41582C12.2279 7.99412 12.7741 7.69162 13.4142 7.67735H15.1699C15.6456 7.66453 16.0464 7.9152 16.0651 8.23702C16.0686 8.29734 16.0582 8.35766 16.0344 8.41582L15.6475 9.60776Z" fill="#F5F5F7"/>
  <path fill-rule="evenodd" clip-rule="evenodd" d="M20.9563 9.60792C20.8101 10.0264 20.2706 10.3281 19.6355 10.3466H17.8745C17.4004 10.3596 17.0004 10.11 16.9812 9.78906C16.9775 9.72801 16.9881 9.66679 17.0127 9.60792L17.3809 8.41597C17.5279 7.9977 18.0672 7.69628 18.7017 7.6775H20.4627C20.9368 7.66432 21.3368 7.9139 21.356 8.23483C21.3597 8.29587 21.3491 8.35709 21.3245 8.41597L20.9563 9.60792Z" fill="#F5F5F7"/>
  <path fill-rule="evenodd" clip-rule="evenodd" d="M26.2599 9.60792C26.1131 10.03 25.5661 10.3328 24.9258 10.3466H23.1674C22.6933 10.3596 22.2933 10.11 22.2741 9.78906C22.2706 9.72801 22.281 9.66679 22.3056 9.60792L22.6738 8.41597C22.8216 7.99427 23.3681 7.69177 24.0079 7.6775H25.7662C26.2404 7.66432 26.6403 7.9139 26.6596 8.23483C26.6633 8.29587 26.6526 8.35709 26.6281 8.41597L26.2599 9.60792Z" fill="#F5F5F7"/>
  <path fill-rule="evenodd" clip-rule="evenodd" d="M14.5348 13.1981C14.3894 13.6169 13.8493 13.919 13.214 13.9367H11.4583C10.9826 13.9494 10.5821 13.6987 10.5632 13.3769C10.5597 13.3165 10.5701 13.2562 10.5938 13.1981L10.962 12.0079C11.1107 11.5866 11.6566 11.2843 12.2962 11.2693H14.0518C14.526 11.2563 14.9259 11.5059 14.9452 11.8268C14.9486 11.8878 14.9382 11.9491 14.9137 12.0079L14.5348 13.1981Z" fill="#F5F5F7"/>
  <path fill-rule="evenodd" clip-rule="evenodd" d="M19.8404 13.1982C19.6952 13.6164 19.1565 13.9182 18.5223 13.9368H16.7612C16.2871 13.9498 15.8871 13.7002 15.8679 13.3793C15.8642 13.3183 15.8749 13.257 15.8994 13.1982L16.2676 12.008C16.4144 11.586 16.9613 11.2831 17.6017 11.2694H19.3601C19.8356 11.2567 20.2363 11.5074 20.2553 11.8294C20.2587 11.8896 20.2483 11.9499 20.2246 12.008L19.8404 13.1982Z" fill="#F5F5F7"/>
  <path fill-rule="evenodd" clip-rule="evenodd" d="M6.20239 6.01765C6.05618 6.4361 5.51666 6.73788 4.88163 6.7563H3.12061C2.64647 6.7693 2.2465 6.51972 2.22729 6.19879C2.22355 6.13775 2.23423 6.07653 2.25877 6.01765L2.62699 4.82751C2.77561 4.40618 3.32152 4.10385 3.9611 4.08886H5.72212C6.19626 4.07586 6.59622 4.32545 6.61543 4.64637C6.61917 4.70741 6.6085 4.76864 6.58395 4.82751L6.20239 6.01765Z" fill="#F5F5F7"/>
  <path fill-rule="evenodd" clip-rule="evenodd" d="M17.7803 2.62601C17.6336 3.04807 17.0863 3.35093 16.4462 3.36466H14.7065C14.2324 3.37766 13.8324 3.12808 13.8132 2.80715C13.8095 2.74611 13.8202 2.68489 13.8447 2.62601L14.2129 1.43406C14.3621 1.01309 14.9077 0.710949 15.547 0.695417H17.3054C17.7809 0.682595 18.1816 0.933265 18.2006 1.25527C18.204 1.31559 18.1936 1.37591 18.1699 1.43406L17.7803 2.62601Z" fill="#F5F5F7"/>
  <path fill-rule="evenodd" clip-rule="evenodd" d="M10.3929 9.60779C10.2454 10.0295 9.69866 10.3322 9.05882 10.3464H7.31381C6.83833 10.3591 6.43756 10.1084 6.41862 9.78659C6.41515 9.72627 6.42556 9.66595 6.44931 9.60779L6.82019 8.41584C6.96801 7.99415 7.51446 7.69165 8.15429 7.67738H9.90197C10.3761 7.6642 10.7761 7.91378 10.7953 8.2347C10.799 8.29575 10.7884 8.35697 10.7638 8.41584L10.3929 9.60779Z" fill="#F5F5F7"/>
  <path fill-rule="evenodd" clip-rule="evenodd" d="M3.97496 13.1982C3.8282 13.6203 3.28122 13.9231 2.64085 13.9368H0.895837C0.420361 13.9495 0.0195957 13.6988 0.000651423 13.377C-0.00281725 13.3167 0.00758878 13.2563 0.0313359 13.1982L0.402218 12.0081C0.549236 11.586 1.09595 11.2831 1.73632 11.2694H3.49468C3.96882 11.2564 4.36878 11.506 4.38799 11.8269C4.39173 11.888 4.38106 11.9492 4.35651 12.0081L3.97496 13.1982Z" fill="#F5F5F7"/>
  <path fill-rule="evenodd" clip-rule="evenodd" d="M9.28127 13.1982C9.13265 13.6195 8.58673 13.9218 7.94716 13.9368H6.18881C5.71306 13.9495 5.3123 13.6988 5.29362 13.377C5.29015 13.3166 5.30056 13.2563 5.3243 13.1982L5.69252 12.008C5.84087 11.5867 6.38705 11.2844 7.02663 11.2694H8.78498C9.26045 11.2567 9.66122 11.5074 9.68016 11.8294C9.68363 11.8896 9.67323 11.9499 9.64948 12.008L9.28127 13.1982Z" fill="#F5F5F7"/>
  <path fill-rule="evenodd" clip-rule="evenodd" d="M7.70735 16.8824C7.56059 17.3045 7.01334 17.6073 6.37324 17.621H4.61489C4.14048 17.629 3.74638 17.3752 3.73464 17.0541C3.73251 16.9962 3.74318 16.9384 3.76639 16.8824L4.13461 15.6923C4.28136 15.2702 4.82834 14.9673 5.46871 14.9536H7.22707C7.70121 14.9406 8.10117 15.1902 8.12038 15.5109C8.12412 15.5722 8.11345 15.6334 8.0889 15.6923L7.70735 16.8824Z" fill="#F5F5F7"/>
</svg>

<svg id="left-arrow" xmlns="http://www.w3.org/2000/svg" width="10" height="18" viewBox="0 0 10 18" fill="none">
  <path d="M9.23438 16.6668L0.850374 9.2495C0.779077 9.18623 0.738274 9.09548 0.738274 9.00016C0.738274 8.90485 0.779077 8.81409 0.850374 8.75083L9.23438 1.3335" stroke="#F5F5F7" stroke-linecap="round" stroke-linejoin="round"/>
</svg>

<svg id="right-arrow" width="24" height="25" viewBox="0 0 24 25" fill="none" xmlns="http://www.w3.org/2000/svg">
<path d="M5.65234 24L18.2283 12.874C18.3353 12.7791 18.3965 12.643 18.3965 12.5C18.3965 12.357 18.3353 12.2209 18.2283 12.126L5.65234 1" stroke="#F5F5F7" stroke-linecap="round" stroke-linejoin="round"/>
</svg>
