<svg xmlns="http://www.w3.org/2000/svg" width="20" height="16" viewBox="0 0 20 16" fill="none">
<path fill-rule="evenodd" clip-rule="evenodd" d="M3.28333 0.916504H16.7167C18.53 0.916504 20 2.3865 20 4.19984V11.7998C20 13.6132 18.53 15.0832 16.7167 15.0832H3.28333C1.47 15.0832 0 13.6132 0 11.7998V4.19984C0 2.3865 1.47 0.916504 3.28333 0.916504ZM8.14167 11.6341L13.7833 8.00076V8.02576C13.9022 7.949 13.9739 7.81721 13.9739 7.67576C13.9739 7.5343 13.9022 7.40251 13.7833 7.32576L8.14167 3.71742C8.01354 3.63522 7.85078 3.62943 7.71714 3.70233C7.5835 3.77522 7.50025 3.91519 7.5 4.06742V11.2841C7.50025 11.4363 7.5835 11.5763 7.71714 11.6492C7.85078 11.7221 8.01354 11.7163 8.14167 11.6341Z" fill="#F5F5F7"/>
</svg>